<svg width="131" height="23" viewBox="0 0 131 23" fill="none" xmlns="http://www.w3.org/2000/svg">
<path d="M6.39223 22.8395C5.91617 22.8183 5.44971 22.6996 5.0222 22.4911C4.59468 22.2825 4.21538 21.9885 3.90818 21.6276C3.60098 21.2666 3.37253 20.8466 3.2372 20.3939C3.10188 19.9413 3.0626 19.4657 3.12186 18.9973L3.3693 17.0675C3.41653 16.6974 3.37234 16.3214 3.24049 15.9719C3.10864 15.6224 2.89309 15.3099 2.61237 15.0611L1.14924 13.7659C0.6701 13.3419 0.320266 12.7935 0.139335 12.1828C-0.0415969 11.572 -0.0464079 10.9233 0.125425 10.31C0.297258 9.69675 0.638872 9.14332 1.11166 8.71236C1.58445 8.28141 2.16954 7.99012 2.80074 7.87144L4.72963 7.50848C5.0994 7.43897 5.44657 7.28145 5.74124 7.04949C6.03591 6.81753 6.26926 6.51807 6.42116 6.17692L7.21287 4.3957C7.4721 3.81342 7.89058 3.31459 8.42099 2.95558C8.9514 2.59658 9.5726 2.39171 10.2144 2.36415C10.8562 2.33658 11.4929 2.48742 12.0527 2.7996C12.6125 3.11178 13.073 3.57285 13.3821 4.13072L14.3259 5.83585C14.5069 6.16324 14.7657 6.44206 15.0798 6.64827C15.3938 6.85449 15.7539 6.98189 16.1287 7.01949L18.0815 7.21494C18.7207 7.279 19.3291 7.51897 19.8378 7.90772C20.3465 8.29647 20.7352 8.81847 20.9601 9.41471C21.1849 10.0109 21.2369 10.6576 21.1101 11.2816C20.9833 11.9056 20.6827 12.4819 20.2425 12.9455L18.8976 14.362C18.6395 14.6334 18.4519 14.963 18.3512 15.3224C18.2504 15.6817 18.2395 16.0599 18.3194 16.4244L18.7344 18.3265C18.8701 18.9484 18.8276 19.5956 18.6116 20.1948C18.3955 20.7941 18.0146 21.3215 17.5118 21.7175C17.009 22.1134 16.4045 22.3622 15.7665 22.4356C15.1285 22.509 14.4825 22.4041 13.9015 22.1328L12.1257 21.3038C11.7852 21.144 11.4106 21.0689 11.0343 21.0849C10.6579 21.1009 10.2912 21.2076 9.96585 21.3957L8.26908 22.3746C7.70108 22.7039 7.04981 22.8652 6.39223 22.8395Z" fill="#FBDE45"/>
<path d="M34.0405 22.044C33.1646 22.004 32.3362 21.6376 31.7213 21.0182C31.3498 20.6284 31.0726 20.1599 30.9109 19.6483C30.7492 19.1366 30.707 18.5952 30.7877 18.0651L31.0147 16.2944C31.0631 15.9174 31.0182 15.5344 30.8839 15.1784C30.7496 14.8223 30.53 14.504 30.2439 14.2507L28.8867 13.0492C28.4864 12.7107 28.1673 12.2881 27.9527 11.812C27.7381 11.3359 27.6333 10.8184 27.6461 10.2972C27.6757 9.52505 27.9692 8.78579 28.4785 8.20053C28.9877 7.61528 29.6825 7.21874 30.449 7.07589L32.3555 6.71716C32.7325 6.64622 33.0864 6.48552 33.3867 6.2489C33.6871 6.01227 33.9248 5.70683 34.0794 5.35892L34.7899 3.76051C35.0439 3.15383 35.462 2.62835 35.998 2.2419C36.5341 1.85546 37.1674 1.62303 37.8282 1.5702C38.4759 1.53382 39.1206 1.68038 39.6875 1.99283C40.2544 2.30529 40.7201 2.7708 41.0304 3.33519L41.9632 5.02051C42.1478 5.35412 42.4117 5.6382 42.7318 5.84828C43.052 6.05836 43.419 6.18812 43.8011 6.22636L45.6109 6.40751C46.1359 6.44818 46.6451 6.60442 47.1014 6.86485C47.5576 7.12528 47.9495 7.48333 48.2483 7.91287C48.6818 8.55487 48.8825 9.32363 48.8176 10.0934C48.7526 10.8631 48.4259 11.5882 47.8908 12.15L46.5616 13.55C46.2989 13.8267 46.1081 14.1624 46.0054 14.5283C45.9028 14.8942 45.8915 15.2794 45.9725 15.6506L46.3556 17.4069C46.4784 17.9138 46.4861 18.4414 46.378 18.9516C46.27 19.4618 46.049 19.9418 45.731 20.3571C45.2505 20.9673 44.5744 21.3969 43.8142 21.5751C43.0541 21.7533 42.2553 21.6694 41.5498 21.3372L39.7923 20.5168C39.4457 20.355 39.0645 20.2791 38.6816 20.2956C38.2987 20.3121 37.9257 20.4205 37.5945 20.6116L35.9174 21.5791C35.3494 21.9084 34.6981 22.0697 34.0405 22.044Z" fill="#FBDE45"/>
<path d="M61.7604 21.9279C61.2843 21.9067 60.8179 21.788 60.3904 21.5795C59.9629 21.3709 59.5836 21.0769 59.2764 20.716C58.9692 20.355 58.7407 19.935 58.6054 19.4823C58.47 19.0297 58.4308 18.5541 58.49 18.0857L58.7375 16.1559C58.7847 15.7858 58.7405 15.4098 58.6086 15.0603C58.4768 14.7108 58.2612 14.3983 57.9805 14.1495L56.5174 12.8543C56.0383 12.4303 55.6884 11.8819 55.5075 11.2712C55.3266 10.6605 55.3217 10.0118 55.4936 9.39845C55.6654 8.78516 56.0071 8.23173 56.4799 7.80077C56.9526 7.36981 57.5377 7.07852 58.1689 6.95983L60.0978 6.59687C60.4676 6.52736 60.8147 6.36986 61.1094 6.1379C61.4041 5.90594 61.6374 5.60648 61.7893 5.26533L62.581 3.48411C62.8403 2.90183 63.2587 2.403 63.7891 2.04399C64.3196 1.68499 64.9408 1.48012 65.5825 1.45256C66.2243 1.42499 66.8611 1.57581 67.4209 1.88799C67.9807 2.20017 68.4411 2.66126 68.7502 3.21913L69.6941 4.92426C69.8751 5.25165 70.1338 5.53047 70.4479 5.73668C70.762 5.94289 71.122 6.07028 71.4969 6.10788L73.4496 6.30333C74.0889 6.36738 74.6972 6.60736 75.2059 6.99611C75.7146 7.38485 76.1034 7.90688 76.3282 8.50312C76.5531 9.09936 76.605 9.74602 76.4782 10.37C76.3514 10.994 76.0509 11.5703 75.6107 12.0339L74.2658 13.4504C74.0076 13.7218 73.8201 14.0514 73.7193 14.4108C73.6186 14.7701 73.6077 15.1483 73.6876 15.5128L74.1025 17.4149C74.2383 18.0368 74.1958 18.684 73.9797 19.2832C73.7637 19.8825 73.3828 20.4099 72.88 20.8059C72.3772 21.2018 71.7726 21.4506 71.1346 21.524C70.4966 21.5974 69.8506 21.4925 69.2696 21.2211L67.4939 20.3922C67.1534 20.2324 66.7788 20.1573 66.4024 20.1733C66.0261 20.1893 65.6593 20.296 65.334 20.4841L63.6372 21.463C63.0693 21.7923 62.418 21.9536 61.7604 21.9279Z" fill="#FBDE45"/>
<path d="M88.7228 21.2033C88.2467 21.182 87.7803 21.0634 87.3528 20.8548C86.9252 20.6462 86.5459 20.3522 86.2387 19.9913C85.9315 19.6304 85.7031 19.2104 85.5678 18.7577C85.4325 18.305 85.3932 17.8295 85.4525 17.361L85.6999 15.4313C85.7471 15.0611 85.7029 14.6851 85.5711 14.3356C85.4392 13.9862 85.2237 13.6736 84.943 13.4249L83.4798 12.1296C83.0007 11.7056 82.6508 11.1572 82.4699 10.5465C82.289 9.93579 82.2842 9.28708 82.456 8.67378C82.6278 8.06049 82.9694 7.50706 83.4422 7.0761C83.915 6.64514 84.5001 6.35386 85.1313 6.23518L87.0602 5.87222C87.43 5.80271 87.7772 5.64519 88.0718 5.41323C88.3665 5.18127 88.5998 4.88181 88.7517 4.54066L89.5434 2.75943C89.8026 2.17716 90.2211 1.67833 90.7515 1.31932C91.2819 0.960318 91.9031 0.755453 92.5449 0.727888C93.1867 0.700323 93.8235 0.851159 94.3833 1.16334C94.943 1.47552 95.4035 1.93659 95.7126 2.49446L96.6564 4.19959C96.8375 4.52697 97.0962 4.8058 97.4103 5.01201C97.7244 5.21822 98.0844 5.34563 98.4593 5.38323L100.412 5.57868C101.051 5.64273 101.66 5.88271 102.168 6.27146C102.677 6.6602 103.066 7.18223 103.291 7.77847C103.515 8.37471 103.567 9.02137 103.441 9.64534C103.314 10.2693 103.013 10.8457 102.573 11.3093L101.228 12.7258C100.97 12.9972 100.782 13.3268 100.682 13.6861C100.581 14.0454 100.57 14.4237 100.65 14.7881L101.065 16.6902C101.201 17.3122 101.158 17.9593 100.942 18.5586C100.726 19.1578 100.345 19.6852 99.8424 20.0812C99.3396 20.4772 98.735 20.7259 98.097 20.7993C97.459 20.8727 96.813 20.7678 96.232 20.4965L94.4562 19.6675C94.1158 19.5077 93.7412 19.4326 93.3648 19.4486C92.9885 19.4647 92.6217 19.5714 92.2964 19.7595L90.5996 20.7384C90.0316 21.0676 89.3804 21.229 88.7228 21.2033Z" fill="#FBDE45"/>
<path d="M115.685 20.4786C115.209 20.4573 114.743 20.3387 114.315 20.1301C113.888 19.9215 113.508 19.6275 113.201 19.2666C112.894 18.9057 112.665 18.4857 112.53 18.033C112.395 17.5803 112.356 17.1048 112.415 16.6363L112.662 14.7066C112.71 14.3364 112.665 13.9604 112.533 13.6109C112.402 13.2614 112.186 12.9489 111.905 12.7002L110.442 11.4049C109.963 10.9809 109.613 10.4326 109.432 9.82183C109.251 9.2111 109.247 8.5624 109.418 7.9491C109.59 7.3358 109.932 6.78238 110.405 6.35142C110.877 5.92046 111.463 5.62916 112.094 5.51047L114.023 5.14751C114.392 5.078 114.74 4.92051 115.034 4.68855C115.329 4.45659 115.562 4.15712 115.714 3.81598L116.506 2.03475C116.765 1.45247 117.183 0.953642 117.714 0.594637C118.244 0.235632 118.866 0.0307677 119.507 0.00320231C120.149 -0.0243631 120.786 0.126473 121.346 0.438653C121.905 0.750833 122.366 1.2119 122.675 1.76977L123.619 3.47495C123.8 3.80233 124.059 4.08114 124.373 4.28735C124.687 4.49356 125.047 4.62096 125.422 4.65857L127.374 4.85401C128.014 4.91807 128.622 5.15804 129.131 5.54679C129.639 5.93554 130.028 6.45757 130.253 7.0538C130.478 7.65004 130.53 8.29671 130.403 8.92067C130.276 9.54464 129.976 10.121 129.535 10.5846L128.191 12.0011C127.932 12.2725 127.745 12.6021 127.644 12.9615C127.543 13.3208 127.532 13.699 127.612 14.0634L128.027 15.9656C128.163 16.5875 128.121 17.2347 127.905 17.8339C127.688 18.4332 127.308 18.9606 126.805 19.3565C126.302 19.7525 125.697 20.0013 125.059 20.0746C124.421 20.148 123.775 20.0431 123.194 19.7718L121.419 18.9429C121.078 18.7831 120.704 18.708 120.327 18.724C119.951 18.74 119.584 18.8467 119.259 19.0348L117.562 20.0137C116.994 20.343 116.343 20.5043 115.685 20.4786Z" fill="#FBDE45"/>
</svg>
